# xmcd CD database file
#
# Track frame offsets:
#	150
#	28741
#	52411
#	77045
#	96998
#	121296
#	143970
#	172091
#	184761
#	213717
#	246901
#	269740
#	302703
#
# Disc length: 4296 seconds
#
# Revision: 1
# Processed by: cddbd v1.5.1PL0 Copyright (c) Steve Scherf et al.
# Submitted via: CDex 1.51
#
DISCID=ce10c60d
DTITLE=Stiller Has - Poulet Tour
DYEAR=2004
DGENRE=Blues
TTITLE0=Intercity
TTITLE1=Hüt chunnt sie hei
TTITLE2=St. Veit
TTITLE3=Schweinderl
TTITLE4=Walliselle
TTITLE5=Hündeler
TTITLE6=Blaue Mäntig
TTITLE7=Tequila Halleluja
TTITLE8=Znüni näh
TTITLE9=I bi nid i
TTITLE10=Chicken
TTITLE11=Innsbruck
TTITLE12=Vater la mi (Bearbeitung Nick Hobbs)
EXTD=YEAR: 2004
EXTT0=
EXTT1=
EXTT2=
EXTT3=
EXTT4=
EXTT5=
EXTT6=
EXTT7=
EXTT8=
EXTT9=
EXTT10=
EXTT11=
EXTT12=
PLAYORDER=
